<?xml version="1.0" encoding="UTF-8"?><svg id="Layer_1" xmlns="http://www.w3.org/2000/svg" viewBox="0 0 49.38 49.38"><defs><style>.cls-1{fill:#f3f3f3;}.cls-2{fill:#7e8b8c;}</style></defs><path class="cls-2" d="M48.89,23.28l-1.91-1.91c-.51-.52-1.31-.64-1.95-.28-.97,.54-2.01,1.29-3.05,2.16l.65,2.06c1.07-.95,2.14-1.76,3.13-2.34l1.53,1.53c-.8,1.36-2.03,2.89-3.47,4.33-.02,.02-.04,.03-.06,.05l.67,2.12c.28-.26,.55-.52,.8-.76,1.65-1.65,3.05-3.43,3.94-5.01,.35-.63,.23-1.43-.29-1.95Z"/><path class="cls-2" d="M20.49,5.61s.04-.04,.06-.06c1.44-1.44,2.97-2.66,4.33-3.46l1.53,1.53c-.58,.99-1.39,2.06-2.33,3.13l2.06,.65c.87-1.04,1.62-2.09,2.16-3.05,.36-.63,.24-1.44-.28-1.95l-1.91-1.91c-.52-.52-1.33-.64-1.95-.28-1.58,.88-3.36,2.28-5.01,3.93-.26,.26-.51,.53-.75,.8l2.11,.67Z"/><path class="cls-2" d="M16.34,49.38c-.12,0-.23-.01-.35-.04-.57-.13-1.03-.56-1.25-1.18l-2.67-7.45c-2.24,.85-3.13,.91-3.71,.31-.59-.59-.54-1.48,.31-3.72l-7.44-2.67c-.62-.22-1.06-.68-1.18-1.25-.13-.57,.07-1.17,.53-1.64l1.36-1.36c.57-.57,1.54-.94,2.29-.85l8.68,.33c.99-1.29,2.08-2.53,3.25-3.7l6.07-6.07-2.58-2.58c-.43-.42-1.2-1.06-1.69-1.39L3.57,6.47c-.53-.36-.85-.9-.87-1.48-.02-.58,.25-1.15,.75-1.54l1.41-1.12c.92-.65,2.37-.89,3.4-.6l24.55,7.8,4.87-4.87c2.42-2.42,4.55-3.46,5.91-3.91,1.97-.65,3.64-.48,4.58,.46,.56,.56,.85,1.38,.86,2.38,0,2.39-1.61,5.42-4.3,8.11l-4.87,4.87,7.79,24.53c.31,1.06,.06,2.5-.56,3.38l-1.15,1.46c-.4,.5-1,.76-1.54,.75-.58-.02-1.12-.34-1.48-.87l-9.66-14.4c-.33-.49-.97-1.26-1.39-1.69l-2.58-2.58-6.03,6.03c-1.21,1.21-2.46,2.31-3.74,3.3l.33,8.75c.07,.69-.28,1.66-.86,2.23l-1.36,1.36c-.37,.37-.83,.57-1.29,.57Zm-3.68-10.97c.14,0,.28,.03,.41,.09,.25,.11,.44,.32,.53,.57l2.89,8.06,1.1-1.09c.16-.16,.29-.54,.27-.67l-.36-9.33c-.01-.33,.14-.64,.4-.84,1.36-1.01,2.67-2.15,3.9-3.38l6.78-6.78c.39-.39,1.02-.39,1.41,0l3.28,3.28c.52,.52,1.24,1.39,1.64,1.99l9.57,14.26,1.02-1.28c.24-.34,.38-1.16,.25-1.61l-7.96-25.08c-.11-.35-.02-.74,.24-1.01l5.29-5.3c1.67-1.67,2.89-3.49,3.43-5.13,.44-1.33,.33-2.24,.02-2.54-.31-.31-1.21-.42-2.55,.02-1.64,.54-3.46,1.76-5.13,3.43l-5.29,5.3c-.27,.27-.65,.36-1.01,.25L7.68,3.63c-.43-.13-1.25,.02-1.63,.29l-1.23,.98,14.26,9.57c.6,.4,1.47,1.12,1.99,1.64l3.28,3.28c.39,.39,.39,1.02,0,1.41l-6.73,6.74c-1.27,1.27-2.41,2.58-3.43,3.95-.2,.26-.48,.42-.84,.4l-9.27-.35c-.22-.03-.58,.11-.74,.27l-1.09,1.1,8.06,2.89c.26,.09,.46,.28,.58,.53,.11,.25,.12,.53,.01,.78-.44,1.07-.67,1.75-.8,2.19,.43-.13,1.11-.36,2.19-.8,.12-.05,.25-.07,.38-.07Z"/><g><line class="cls-1" x1="33.09" y1="10.65" x2="23.22" y2="20.52"/><path class="cls-2" d="M23.22,21.52c-.26,0-.51-.1-.7-.29-.39-.39-.39-1.02,0-1.41l9.87-9.87c.39-.39,1.02-.39,1.41,0,.39,.39,.39,1.02,0,1.41l-9.87,9.87c-.19,.19-.45,.29-.7,.29Z"/></g><g><line class="cls-1" x1="34.97" y1="8.77" x2="20.93" y2="22.81"/><path class="cls-2" d="M20.93,23.81c-.26,0-.51-.1-.7-.29-.39-.39-.39-1.02,0-1.41l14.04-14.04c.39-.39,1.02-.39,1.41,0,.39,.39,.39,1.02,0,1.41l-14.04,14.04c-.19,.19-.45,.29-.7,.29Z"/></g></svg>