<?xml version="1.0" encoding="UTF-8"?><svg id="Layer_1" xmlns="http://www.w3.org/2000/svg" viewBox="0 0 51.22 45.24"><defs><style>.cls-1{fill:#fff;}</style></defs><path class="cls-1" d="m12.86,39.32h0s-2.47,4.29-2.47,4.29c-.9,1.56-2.9,2.1-4.47,1.2-1.56-.9-2.1-2.9-1.2-4.47l1.82-3.16.17-.3c.31-.45,1.08-1.22,2.62-1.08,0,0,3.63.39,3.89,2.28,0,0,.04.62-.38,1.24h0Zm35.08-10.94h-7.71c-.53-.04-.75-.22-.84-.33h0s-8.26-14.31-8.26-14.31h-.01s-.5-.7-.5-.7c-.81-1.24-2.1,1.93-2.1,1.93-1.54,3.54.22,7.56.83,8.77l11.47,19.86c.9,1.56,2.9,2.1,4.47,1.2,1.56-.9,2.1-2.9,1.2-4.47l-2.87-4.97c-.06-.12-.15-.45.44-.45h3.9c1.81,0,3.27-1.46,3.27-3.27s-1.46-3.27-3.27-3.27h0Zm-14.98,4.45s.41,2.09-1.18,2.09h-1.59s-26.92,0-26.92,0c-1.81,0-3.27-1.46-3.27-3.27s1.46-3.27,3.27-3.27h7.33c1.18-.07,1.46-.75,1.46-.75h0s9.57-16.57,9.57-16.57h0c.17-.32.03-.62,0-.67l-3.16-5.47c-.9-1.56-.37-3.56,1.2-4.47,1.56-.9,3.56-.37,4.47,1.2l1.47,2.54,1.46-2.53c.9-1.56,2.9-2.1,4.47-1.2,1.56.9,2.1,2.9,1.2,4.47l-13.32,23.06c-.06.14-.08.36.36.4h7.96s4.6.15,5.23,4.45Z"/></svg>