<svg id="Layer_1" data-name="Layer 1" xmlns="http://www.w3.org/2000/svg" viewBox="0 0 35 35"><defs><style>.cls-1{fill:#779cb3;}.cls-2{fill:#fff;}</style></defs><title>HI icons</title><path class="cls-1" d="M17.5,35A17.5,17.5,0,1,0,0,17.5,17.51,17.51,0,0,0,17.5,35"/><path class="cls-2" d="M14.66,22.14a2,2,0,0,0-2-2,2,2,0,0,0-2,1.95,2,2,0,0,0,3.93,0M8,17.21c0-.24,0-.47,0-.71,0-.63,0-1.27,0-1.91a1.9,1.9,0,0,1,.1-.57,1,1,0,0,1,1-.81,2.45,2.45,0,0,1,.54,0,1,1,0,0,1,.8.7,3.85,3.85,0,0,1,.15.89c0,1,0,2,0,2.93v.16l.21-.07A5.36,5.36,0,0,1,13,17.53,4.41,4.41,0,0,1,16,19a4.51,4.51,0,0,1,1.28,3.52,4.63,4.63,0,0,1-9.12.76,6.73,6.73,0,0,1-.14-1.55c0-.74,0-1.48,0-2.22a.68.68,0,0,0,0-.14Z"/><path class="cls-2" d="M14.47,8.5A12.82,12.82,0,0,1,24,13,11.88,11.88,0,0,1,26.65,18,10.73,10.73,0,0,1,27,20.77a1.82,1.82,0,0,1-.06.46,1.13,1.13,0,0,1-.86.88,2.08,2.08,0,0,1-1,0A1.25,1.25,0,0,1,24,20.93a11,11,0,0,0-.32-2.28,9.7,9.7,0,0,0-7.39-7.1,11.15,11.15,0,0,0-1.82-.21,5.16,5.16,0,0,1-1-.13,1.09,1.09,0,0,1-.9-1.07,2.57,2.57,0,0,1,.05-.73,1.05,1.05,0,0,1,1-.86c.31,0,.64,0,.86-.05"/><path class="cls-2" d="M22.07,20.55c0,.17,0,.39-.06.6a1.17,1.17,0,0,1-.92,1,2.16,2.16,0,0,1-1,0,1.23,1.23,0,0,1-1-1.15,7.33,7.33,0,0,0-.28-1.54A4.75,4.75,0,0,0,14.9,16.1c-.35-.07-.72-.08-1.08-.13a2.09,2.09,0,0,1-.43-.11,1.15,1.15,0,0,1-.81-1.22,1.8,1.8,0,0,1,.05-.46,1.27,1.27,0,0,1,1.23-1,5.69,5.69,0,0,1,1.48.16A8.78,8.78,0,0,1,19.23,15,7.16,7.16,0,0,1,22,19.66c0,.28.06.56.1.89"/></svg>