<?xml version="1.0" encoding="UTF-8"?><svg id="Layer_1" xmlns="http://www.w3.org/2000/svg" viewBox="0 0 46.55 60.58"><defs><style>.cls-1{fill:#7e8b8c;}</style></defs><g><path class="cls-1" d="M24.58,13.33c-.21,0-.43-.07-.61-.21-.44-.34-.52-.96-.18-1.4l5.9-7.68c.34-.44,.96-.52,1.4-.18,.44,.34,.52,.96,.18,1.4l-5.9,7.68c-.2,.26-.49,.39-.79,.39Z"/><path class="cls-1" d="M8.05,34.87c-.21,0-.43-.07-.61-.21-.44-.34-.52-.96-.18-1.4l5.95-7.76c.34-.44,.96-.52,1.4-.18,.44,.34,.52,.96,.18,1.4l-5.95,7.76c-.2,.26-.49,.39-.79,.39Z"/><path class="cls-1" d="M27.89,19.13c-.49,0-.92-.36-.99-.87-.07-.55,.31-1.05,.86-1.12l9.63-1.27c.52-.06,1.05,.31,1.12,.86,.07,.55-.31,1.05-.86,1.12l-9.63,1.27s-.09,0-.13,0Z"/><path class="cls-1" d="M.99,22.67c-.49,0-.92-.36-.99-.87-.07-.55,.31-1.05,.86-1.12l9.67-1.27c.51-.06,1.04,.31,1.12,.86,.07,.55-.31,1.05-.86,1.12l-9.67,1.27s-.09,0-.13,0Z"/><path class="cls-1" d="M12.35,14.95c-.21,0-.43-.07-.61-.21l-7.7-5.91c-.44-.34-.52-.96-.18-1.4,.34-.44,.96-.52,1.4-.18l7.7,5.91c.44,.34,.52,.96,.18,1.4-.2,.26-.49,.39-.79,.39Z"/><path class="cls-1" d="M18.12,11.6c-.49,0-.92-.36-.99-.87L15.87,1.13c-.07-.55,.31-1.05,.86-1.12,.55-.08,1.05,.31,1.12,.86l1.27,9.6c.07,.55-.31,1.05-.86,1.12-.05,0-.09,0-.13,0Z"/></g><path class="cls-1" d="M38.1,60.58c-.57,0-1.15-.32-1.48-.87l-7.56-13.1-5.46,5.26c-.71,.69-1.4,.53-1.66,.43-.28-.11-.93-.48-1-1.61l-2.79-30.57c-.05-.71,.21-1.27,.71-1.56,.5-.29,1.11-.24,1.69,.15l25.12,17.73c.92,.61,.92,1.36,.87,1.65-.04,.28-.24,.95-1.2,1.23l-7.29,2.1,7.56,13.08s0,0,0,0c.24,.41,.3,.9,.18,1.34-.11,.41-.37,.75-.73,.95l-6.2,3.58c-.23,.14-.49,.2-.75,.2Zm-.24-1.93s0,0,0,0h0Zm-8.58-14.64s.09,0,.14,.01c.3,.04,.57,.22,.72,.49l8.05,13.94,5.54-3.2-8.05-13.94c-.15-.27-.18-.59-.06-.87s.35-.5,.65-.59l7.64-2.2L20.22,20.92l2.64,28.88,5.73-5.52c.19-.18,.44-.28,.69-.28Zm14.78,11.05h0s0,0,0,0Z"/></svg>