<?xml version="1.0" encoding="UTF-8"?><svg id="Layer_1" xmlns="http://www.w3.org/2000/svg" viewBox="0 0 58.62 53.24"><defs><style>.cls-1{fill:#7e8b8c;}</style></defs><g><path class="cls-1" d="M39.93,47.26c0-3.16,2.57-5.73,5.73-5.73s5.73,2.57,5.73,5.73c0,3.16-2.57,5.73-5.73,5.73-3.16,0-5.73-2.57-5.73-5.73Zm1.5,0c0,2.33,1.9,4.23,4.23,4.23,2.33,0,4.23-1.9,4.23-4.23s-1.9-4.23-4.23-4.23c-2.33,0-4.23,1.9-4.23,4.23Z"/><path class="cls-1" d="M45.66,53.24c-3.3,0-5.98-2.68-5.98-5.98s2.68-5.98,5.98-5.98,5.98,2.68,5.98,5.98-2.68,5.98-5.98,5.98Zm0-11.45c-3.02,0-5.48,2.46-5.48,5.48s2.46,5.48,5.48,5.48,5.48-2.46,5.48-5.48-2.46-5.48-5.48-5.48Zm0,9.96c-2.47,0-4.48-2.01-4.48-4.48s2.01-4.48,4.48-4.48,4.48,2.01,4.48,4.48-2.01,4.48-4.48,4.48Zm0-8.46c-2.19,0-3.98,1.78-3.98,3.98s1.78,3.98,3.98,3.98,3.98-1.79,3.98-3.98-1.79-3.98-3.98-3.98Z"/></g><g><path class="cls-1" d="M10.16,51.31c-2.23-2.23-2.23-5.87,0-8.1,2.23-2.23,5.87-2.23,8.1,0h0c2.23,2.23,2.23,5.87,0,8.1-1.12,1.12-2.58,1.68-4.05,1.68s-2.93-.56-4.05-1.68Zm7.04-7.04c-1.65-1.65-4.33-1.65-5.98,0-1.65,1.65-1.65,4.33,0,5.98,1.65,1.65,4.33,1.65,5.98,0,1.65-1.65,1.65-4.33,0-5.98h0Z"/><path class="cls-1" d="M14.21,53.23c-1.6,0-3.1-.62-4.23-1.75h0c-2.33-2.33-2.33-6.12,0-8.45,2.33-2.33,6.12-2.33,8.45,0,1.13,1.13,1.75,2.63,1.75,4.23s-.62,3.1-1.75,4.23c-1.13,1.13-2.63,1.75-4.23,1.75Zm-3.87-2.1c1.03,1.03,2.41,1.6,3.87,1.6s2.84-.57,3.87-1.6c1.03-1.03,1.6-2.41,1.6-3.87s-.57-2.84-1.6-3.87c-2.13-2.13-5.61-2.13-7.75,0-2.13,2.14-2.13,5.61,0,7.75h0Zm3.87,.6c-1.15,0-2.29-.44-3.17-1.31-1.74-1.75-1.74-4.59,0-6.33,1.74-1.74,4.59-1.75,6.33,0s1.75,4.58,0,6.33c-.87,.87-2.02,1.31-3.17,1.31Zm0-8.45c-1.02,0-2.04,.39-2.81,1.16-1.55,1.55-1.55,4.07,0,5.62,1.55,1.55,4.08,1.55,5.63,0,1.55-1.55,1.55-4.07,0-5.62h0c-.78-.78-1.79-1.16-2.81-1.16Z"/></g><g><path class="cls-1" d="M50.51,49.08c4.33,0,7.85-3.52,7.85-7.85v-3.52c0-.2-.08-.39-.22-.53l-9.86-9.86c-.14-.14-.33-.22-.53-.22h-3.61c-1.32,0-2.57,.7-3.25,1.83l-5.19,8.61c-.36,.59-.54,1.27-.54,1.96v5c0,.41,.34,.75,.75,.75s.75-.34,.75-.75v-5c0-.42,.11-.83,.33-1.18l5.19-8.61c.41-.68,1.16-1.11,1.96-1.11h3.3s9.42,9.42,9.42,9.42v3.21c0,3.5-2.85,6.35-6.35,6.35-.41,0-.75,.34-.75,.75,0,.41,.34,.75,.75,.75Z"/><path class="cls-1" d="M50.51,49.33c-.55,0-1-.45-1-1s.45-1,1-1c3.37,0,6.1-2.74,6.1-6.1v-3.11l-9.28-9.27h-3.2c-.71,0-1.38,.38-1.75,.99l-5.19,8.61c-.19,.32-.29,.69-.29,1.06v5c0,.55-.45,1-1,1s-1-.45-1-1v-5c0-.73,.2-1.46,.58-2.09l5.19-8.61c.72-1.21,2.05-1.96,3.46-1.96h3.61c.27,0,.52,.1,.71,.29l9.86,9.86c.19,.19,.29,.44,.29,.71v3.52c0,4.47-3.63,8.1-8.1,8.1Zm-6.37-20.99h3.41l9.57,9.57v3.32c0,3.64-2.96,6.6-6.6,6.6-.28,0-.5,.22-.5,.5s.22,.5,.5,.5c4.19,0,7.6-3.41,7.6-7.6v-3.52c0-.13-.05-.26-.15-.35l-9.86-9.86c-.09-.1-.22-.15-.35-.15h-3.61c-1.24,0-2.4,.66-3.03,1.71l-5.19,8.61c-.33,.55-.51,1.19-.51,1.83v5c0,.28,.22,.5,.5,.5s.5-.22,.5-.5v-5c0-.46,.13-.91,.37-1.31l5.19-8.61c.46-.76,1.29-1.23,2.18-1.23Z"/></g><g><path class="cls-1" d="M19.07,49.08h21.61c.41,0,.75-.34,.75-.75,0-.41-.34-.75-.75-.75H19.07c-.41,0-.75,.34-.75,.75,0,.41,.34,.75,.75,.75Z"/><path class="cls-1" d="M40.68,49.33H19.07c-.55,0-1-.45-1-1s.45-1,1-1h21.61c.55,0,1,.45,1,1s-.45,1-1,1Zm-21.61-1.5c-.28,0-.5,.22-.5,.5s.22,.5,.5,.5h21.61c.28,0,.5-.22,.5-.5s-.22-.5-.5-.5H19.07Z"/></g><g><path class="cls-1" d="M18.5,45.48h22.67c.41,0,.75-.34,.75-.75,0-.41-.34-.75-.75-.75H18.5c-.41,0-.75,.34-.75,.75,0,.41,.34,.75,.75,.75Z"/><path class="cls-1" d="M41.17,45.73H18.5c-.55,0-1-.45-1-1s.45-1,1-1h22.67c.55,0,1,.45,1,1s-.45,1-1,1Zm-22.67-1.5c-.28,0-.5,.22-.5,.5s.22,.5,.5,.5h22.67c.28,0,.5-.22,.5-.5s-.22-.5-.5-.5H18.5Z"/></g><g><path class="cls-1" d="M7.66,49.08h1.57c.41,0,.75-.34,.75-.75,0-.41-.34-.75-.75-.75h-1.57c-1.17,0-2.24-.59-2.86-1.57l-2.53-3.99c-.34-.54-.53-1.17-.53-1.81v-13.62c0-.43,.35-.78,.78-.78h6.24c.34,0,.65,.23,.75,.56l4.71,16.18c.12,.4,.53,.63,.93,.51,.4-.12,.63-.53,.51-.93l-4.71-16.18c-.28-.97-1.18-1.64-2.19-1.64H2.53c-1.26,0-2.28,1.02-2.28,2.28v13.62c0,.93,.26,1.83,.76,2.62l2.53,3.99c.9,1.42,2.45,2.27,4.13,2.27Z"/><path class="cls-1" d="M9.23,49.33h-1.57c-1.77,0-3.39-.89-4.34-2.39l-2.53-3.99c-.52-.82-.8-1.78-.8-2.75v-13.62c0-1.39,1.13-2.53,2.53-2.53h6.24c1.12,0,2.12,.75,2.43,1.82l4.71,16.18c.15,.53-.15,1.09-.68,1.24-.26,.08-.53,.05-.76-.08-.23-.13-.41-.34-.48-.6l-4.71-16.18c-.06-.22-.27-.38-.51-.38H2.53c-.29,0-.53,.24-.53,.53v13.62c0,.59,.17,1.17,.49,1.68l2.53,3.99c.58,.91,1.57,1.46,2.65,1.46h1.57c.55,0,1,.45,1,1s-.45,1-1,1ZM2.53,24.56c-1.12,0-2.03,.91-2.03,2.03v13.62c0,.88,.25,1.74,.72,2.48l2.53,3.99c.86,1.35,2.32,2.15,3.92,2.15h1.57c.28,0,.5-.22,.5-.5s-.22-.5-.5-.5h-1.57c-1.25,0-2.4-.63-3.07-1.69l-2.53-3.99c-.37-.58-.57-1.26-.57-1.95v-13.62c0-.57,.46-1.03,1.03-1.03h6.24c.46,0,.86,.3,.99,.74l4.71,16.18c.04,.13,.12,.24,.24,.3,.12,.06,.25,.08,.38,.04,.27-.08,.42-.36,.34-.62l-4.71-16.18c-.25-.86-1.05-1.46-1.95-1.46H2.53Z"/></g><g><g><path class="cls-1" d="M16.56,34.16h7.78c.41,0,.75-.34,.75-.75,0-.41-.34-.75-.75-.75h-7.78c-.41,0-.75,.34-.75,.75,0,.41,.34,.75,.75,.75Z"/><path class="cls-1" d="M24.34,34.41h-7.78c-.55,0-1-.45-1-1s.45-1,1-1h7.78c.55,0,1,.45,1,1s-.45,1-1,1Zm-7.78-1.5c-.28,0-.5,.22-.5,.5s.22,.5,.5,.5h7.78c.28,0,.5-.22,.5-.5s-.22-.5-.5-.5h-7.78Z"/></g><g><path class="cls-1" d="M15.02,32.24c.07,0,.14,0,.21-.03,.4-.12,.63-.53,.51-.93L10.93,14.76c-.12-.4-.53-.63-.93-.51-.4,.12-.63,.53-.51,.93l4.81,16.52c.1,.33,.4,.54,.72,.54Z"/><path class="cls-1" d="M15.02,32.49c-.44,0-.84-.3-.96-.72L9.25,15.25c-.15-.53,.15-1.09,.68-1.24,.53-.15,1.09,.15,1.24,.68l4.81,16.52c.15,.53-.15,1.09-.68,1.24-.09,.03-.19,.04-.28,.04ZM10.21,14.47s-.09,0-.14,.02c-.27,.08-.42,.36-.34,.62l4.81,16.52c.07,.26,.36,.42,.62,.34,.27-.08,.42-.36,.34-.62L10.69,14.83c-.06-.22-.26-.36-.48-.36Z"/></g><g><path class="cls-1" d="M18.6,39.61c.41,0,.75-.34,.75-.75v-2.72s2.2-2.2,2.2-2.2c.29-.29,.29-.77,0-1.06-.29-.29-.77-.29-1.06,0l-2.42,2.42c-.14,.14-.22,.33-.22,.53v3.03c0,.41,.34,.75,.75,.75Z"/><path class="cls-1" d="M18.6,39.86c-.55,0-1-.45-1-1v-3.03c0-.27,.1-.52,.29-.71l2.42-2.42c.39-.39,1.02-.39,1.41,0,.19,.19,.29,.44,.29,.71s-.1,.52-.29,.71l-2.12,2.13v2.62c0,.55-.45,1-1,1Zm2.42-6.95c-.13,0-.26,.05-.35,.15l-2.42,2.42c-.09,.09-.15,.22-.15,.35v3.03c0,.28,.22,.5,.5,.5s.5-.22,.5-.5v-2.82l2.27-2.27c.09-.09,.15-.22,.15-.35s-.05-.26-.15-.35-.23-.15-.35-.15Z"/></g></g><g><path class="cls-1" d="M35,31.68c.26,0,.5-.13,.64-.36l3.71-6.16c.21-.35,.1-.82-.26-1.03-.36-.21-.82-.1-1.03,.26l-3.71,6.16c-.21,.35-.1,.82,.26,1.03,.12,.07,.25,.11,.39,.11Z"/><path class="cls-1" d="M35,31.93c-.18,0-.36-.05-.51-.14-.23-.14-.39-.36-.45-.62-.06-.26-.02-.53,.11-.76l3.71-6.16c.13-.23,.35-.39,.61-.46,.26-.07,.53-.03,.76,.11,.23,.14,.39,.36,.45,.62,.06,.26,.02,.53-.11,.76l-3.71,6.16c-.18,.3-.5,.48-.86,.48Zm3.71-7.66s-.08,0-.12,.02c-.13,.03-.24,.11-.3,.23l-3.71,6.16c-.07,.12-.09,.25-.06,.38,.03,.13,.11,.24,.23,.31,.23,.14,.55,.06,.69-.17l3.71-6.16c.07-.11,.09-.25,.06-.38-.03-.13-.11-.24-.23-.31-.08-.05-.17-.07-.26-.07Z"/></g><g><path class="cls-1" d="M38.95,30c.24,0,.48-.12,.62-.33,.23-.34,.14-.81-.2-1.04l-2.1-1.41c-.34-.23-.81-.14-1.04,.2-.23,.34-.14,.81,.2,1.04l2.1,1.41c.13,.09,.27,.13,.42,.13Z"/><path class="cls-1" d="M38.95,30.25c-.2,0-.39-.06-.56-.17l-2.09-1.41c-.46-.31-.58-.93-.27-1.39,.15-.22,.38-.37,.64-.42,.26-.05,.53,0,.75,.15l2.09,1.41c.22,.15,.37,.38,.42,.64,.05,.26,0,.53-.15,.75-.18,.28-.5,.44-.83,.44Zm-2.09-2.91s-.06,0-.09,0c-.13,.03-.25,.1-.32,.21-.15,.23-.09,.54,.14,.69l2.1,1.41c.22,.15,.55,.08,.69-.14,.08-.11,.1-.25,.08-.38-.03-.13-.1-.24-.21-.32l-2.1-1.41c-.08-.06-.18-.09-.28-.09Z"/></g><g><path class="cls-1" d="M47.76,28.6c.08,0,.15-.01,.23-.04,.39-.13,.61-.55,.49-.94l-7.08-22.13c-.1-.31-.39-.52-.71-.52H6.95c-.41,0-.75,.34-.75,.75V25.06c0,.41,.34,.75,.75,.75s.75-.34,.75-.75V6.47H40.13s6.91,21.61,6.91,21.61c.1,.32,.4,.52,.71,.52Z"/><path class="cls-1" d="M47.75,28.85c-.44,0-.82-.28-.95-.7l-6.85-21.43H7.95V25.06c0,.55-.45,1-1,1s-1-.45-1-1V5.72c0-.55,.45-1,1-1H40.68c.44,0,.82,.28,.95,.7l7.08,22.13c.08,.25,.06,.52-.06,.76-.12,.24-.33,.42-.58,.5-.1,.03-.2,.05-.3,.05ZM7.45,6.22H40.31l6.97,21.78c.08,.26,.37,.41,.63,.33,.13-.04,.23-.13,.29-.25,.06-.12,.07-.25,.03-.38l-7.08-22.13c-.07-.21-.26-.35-.48-.35H6.95c-.28,0-.5,.22-.5,.5V25.06c0,.28,.22,.5,.5,.5s.5-.22,.5-.5V6.22Z"/></g><g><path class="cls-1" d="M2.42,4.74V1.97c0-.95,.77-1.72,1.72-1.72H43c.57,0,1.1,.28,1.42,.74l1.91,2.77c.37,.53,.41,1.21,.11,1.78-.3,.57-.88,.92-1.53,.92H4.14c-.95,0-1.72-.77-1.72-1.72Zm1.72-2.99c-.12,0-.22,.1-.22,.22v2.77c0,.12,.1,.22,.22,.22H44.91c.11,0,.17-.07,.2-.12,.03-.06,.05-.14-.01-.23l-1.91-2.77h0c-.04-.06-.11-.1-.18-.1H4.14Zm39.64-.33h0Z"/><path class="cls-1" d="M44.91,6.72H4.14c-1.09,0-1.97-.89-1.97-1.97V1.97c0-1.09,.88-1.97,1.97-1.97H43c.65,0,1.26,.32,1.62,.85l1.91,2.77c.42,.61,.46,1.39,.12,2.04-.34,.65-1.01,1.06-1.75,1.06ZM4.14,.5c-.81,0-1.47,.66-1.47,1.47v2.77c0,.81,.66,1.47,1.47,1.47H44.91c.55,0,1.05-.3,1.3-.79,.26-.49,.22-1.07-.09-1.52l-1.91-2.77c-.28-.4-.73-.64-1.21-.64H4.14ZM44.91,5.22H4.14c-.26,0-.47-.21-.47-.48V1.97c0-.26,.21-.47,.47-.47H43c.16,0,.3,.08,.39,.21l1.91,2.77c.1,.15,.11,.33,.03,.49-.09,.16-.24,.26-.42,.26ZM4.17,2v2.74l40.74-.02-1.93-2.73H4.17Zm39.63-.32v-.5s0,0,0,0v.5Z"/></g><g><path class="cls-1" d="M53.13,41.61h4.48c.41,0,.75-.34,.75-.75,0-.41-.34-.75-.75-.75h-4.17s-2.33-2.33-2.33-2.33v-1.79h4.04c.41,0,.75-.34,.75-.75,0-.41-.34-.75-.75-.75h-4.79c-.41,0-.75,.34-.75,.75v2.85c0,.2,.08,.39,.22,.53l2.77,2.77c.14,.14,.33,.22,.53,.22Z"/><path class="cls-1" d="M57.62,41.86h-4.49c-.27,0-.52-.1-.71-.29l-2.77-2.77c-.19-.19-.29-.44-.29-.71v-2.85c0-.55,.45-1,1-1h4.79c.55,0,1,.45,1,1s-.45,1-1,1h-3.79v1.43l2.18,2.18h4.07c.55,0,1,.45,1,1s-.45,1-1,1Zm-7.25-7.12c-.28,0-.5,.22-.5,.5v2.85c0,.13,.05,.26,.15,.35l2.77,2.77c.09,.09,.22,.15,.35,.15h4.49c.28,0,.5-.22,.5-.5s-.22-.5-.5-.5h-4.28l-2.48-2.48v-2.14h4.29c.28,0,.5-.22,.5-.5s-.22-.5-.5-.5h-4.79Z"/></g><g><path class="cls-1" d="M1.04,39.08h3.79c.41,0,.75-.34,.75-.75v-8.53c0-.41-.34-.75-.75-.75H1c-.41,0-.75,.34-.75,.75s.34,.75,.75,.75h3.07v7.03H1.04c-.41,0-.75,.34-.75,.75,0,.41,.34,.75,.75,.75Z"/><path class="cls-1" d="M4.82,39.33H1.04c-.55,0-1-.45-1-1s.45-1,1-1H3.82v-6.53H1c-.55,0-1-.45-1-1s.45-1,1-1h3.82c.55,0,1,.45,1,1v8.53c0,.55-.45,1-1,1Zm-3.79-1.5c-.28,0-.5,.22-.5,.5s.22,.5,.5,.5h3.79c.28,0,.5-.22,.5-.5v-8.53c0-.28-.22-.5-.5-.5H1c-.28,0-.5,.22-.5,.5s.22,.5,.5,.5h3.32v7.53H1.04Z"/></g><g><path class="cls-1" d="M30.21,45.48c.15,0,.31-.05,.44-.14,.33-.24,.41-.71,.16-1.05l-1.78-2.43c-1.72-2.35-4.48-3.75-7.39-3.75h-7.71c-.41,0-.75,.34-.75,.75,0,.41,.34,.75,.75,.75h7.71c2.43,0,4.74,1.17,6.18,3.14l1.78,2.43c.15,.2,.37,.31,.61,.31Z"/><path class="cls-1" d="M30.21,45.73c-.32,0-.62-.15-.81-.41l-1.78-2.43c-1.39-1.9-3.62-3.04-5.98-3.04h-7.71c-.55,0-1-.45-1-1s.45-1,1-1h7.71c2.99,0,5.83,1.44,7.59,3.86l1.78,2.43c.32,.45,.23,1.07-.22,1.4-.17,.13-.38,.19-.59,.19Zm-16.27-7.38c-.28,0-.5,.22-.5,.5s.22,.5,.5,.5h7.71c2.51,0,4.9,1.21,6.38,3.24l1.78,2.43c.15,.21,.48,.27,.7,.11,.22-.16,.27-.48,.11-.7l-1.78-2.43c-1.67-2.29-4.36-3.65-7.19-3.65h-7.71Z"/></g></svg>