<svg id="Layer_1" data-name="Layer 1" xmlns="http://www.w3.org/2000/svg" viewBox="0 0 2310.99 197.62"><defs><style>.cls-1{fill:#a1542a;}</style></defs><title>craigmoor-logo</title><path class="cls-1" d="M39,261.21v-.55c0-54.31,40.67-98.81,98.54-98.81,35.2,0,56.5,12.28,74.79,29.75l-21.57,24.84c-15.28-14.19-31.66-23.74-53.5-23.74-36.3,0-63.05,30-63.05,67.42v.54c0,37.4,26.48,67.69,63.05,67.69,23.48,0,38.49-9.28,54.87-24.56l21.56,21.84c-19.93,20.74-41.77,33.84-77.52,33.84C80.5,359.47,39,316.07,39,261.21Z" transform="translate(-39.01 -161.85)"/><path class="cls-1" d="M314.44,165.13H399.6c24,0,42.85,7.1,55.14,19.11,10.1,10.37,15.83,24.56,15.83,41.21V226c0,31.39-18.83,50.22-45.31,57.86l51.59,72.33H437l-46.94-66.6H348v66.6H314.44Zm82.7,94.71c24,0,39.31-12.55,39.31-31.93v-.55c0-20.47-14.74-31.66-39.58-31.66H348v64.14Z" transform="translate(-39.01 -161.85)"/><path class="cls-1" d="M645,163.76h31.11l84.07,192.43H724.71l-19.38-46.12H615l-19.65,46.12H560.94Zm48,116.55-33-76.42-32.76,76.42Z" transform="translate(-39.01 -161.85)"/><path class="cls-1" d="M860.39,165.13H894V356.19H860.39Z" transform="translate(-39.01 -161.85)"/><path class="cls-1" d="M1002.06,261.21v-.55c0-53.5,40.94-98.81,98.54-98.81,33.3,0,53.77,9.28,73.42,25.93l-21.29,25.39c-14.74-12.56-29.2-20.47-53.5-20.47-35.21,0-62,30.84-62,67.42v.54c0,39.31,25.93,68.24,65,68.24,18,0,34.39-5.73,46.13-14.47V278.68h-48.86V249.47h81.33v80.25c-18.83,16.1-45.85,29.75-79.69,29.75C1041.37,359.47,1002.06,316.89,1002.06,261.21Z" transform="translate(-39.01 -161.85)"/><path class="cls-1" d="M1290.05,165.13h35.76l58.13,90.34,58.15-90.34h35.75V356.19h-33.57v-137l-60.33,90.08h-1.09l-59.77-89.53V356.19h-33Z" transform="translate(-39.01 -161.85)"/><path class="cls-1" d="M1584.05,261.21v-.55c0-53.77,41.49-98.81,100.17-98.81s99.63,44.5,99.63,98.27v.54c0,53.77-41.49,98.81-100.17,98.81S1584.05,315,1584.05,261.21Zm164.59,0v-.55c0-37.12-27-68-65-68s-64.42,30.29-64.42,67.42v.54c0,37.12,27,67.69,65,67.69S1748.64,298.33,1748.64,261.21Z" transform="translate(-39.01 -161.85)"/><path class="cls-1" d="M1881.59,261.21v-.55c0-53.77,41.49-98.81,100.17-98.81s99.63,44.5,99.63,98.27v.54c0,53.77-41.49,98.81-100.17,98.81S1881.59,315,1881.59,261.21Zm164.59,0v-.55c0-37.12-27-68-65-68S1916.8,223,1916.8,260.12v.54c0,37.12,27,67.69,65,67.69S2046.18,298.33,2046.18,261.21Z" transform="translate(-39.01 -161.85)"/><path class="cls-1" d="M2187.59,165.13h85.16c24,0,42.86,7.1,55.14,19.11,10.1,10.37,15.83,24.56,15.83,41.21V226c0,31.39-18.83,50.22-45.31,57.86L2350,356.19h-39.85l-47-66.6h-42v66.6h-33.57Zm82.71,94.71c24,0,39.3-12.55,39.3-31.93v-.55c0-20.47-14.74-31.66-39.58-31.66h-48.86v64.14Z" transform="translate(-39.01 -161.85)"/></svg>