<?xml version="1.0" encoding="UTF-8"?>
<svg id="Layer_1" data-name="Layer 1" xmlns="http://www.w3.org/2000/svg" viewBox="0 0 15.91 34.07">
  <defs>
    <style>
      .cls-1 {
        fill: #fff;
        stroke-width: 0px;
      }
    </style>
  </defs>
  <path class="cls-1" d="M15.91,0c0,.11-.02.22-.02.33,0,1.75,0,3.5,0,5.25,0,.24-.07.3-.31.3-.95,0-1.9,0-2.86,0-.32,0-.65.06-.97.12-.6.11-1.04.6-1.06,1.28-.05,1.23-.04,2.47-.06,3.7,0,.23.15.19.28.19h5c-.21,1.98-.41,3.91-.62,5.87h-4.65v.37c0,5.45,0,10.9,0,16.35,0,.11,0,.22,0,.33h-6.37c0-.51,0-1.02,0-1.52,0-5.03,0-10.05,0-15.08v-.43H.02c0-.12-.02-.21-.02-.29C0,14.99,0,13.22,0,11.46c0-.24.07-.3.31-.3,1.22,0,2.43,0,3.65,0,.26,0,.31-.08.32-.33,0-1.58,0-3.16.06-4.74.04-1.15.28-2.26.81-3.3.58-1.14,1.49-1.91,2.7-2.3.67-.21,1.38-.3,2.07-.45.1-.02.19-.04.29-.06h5.72Z"/>
</svg>