<svg width="37" height="37" viewBox="0 0 37 37" fill="none" xmlns="http://www.w3.org/2000/svg">
<g clip-path="url(#clip0_447_553)">
<g clip-path="url(#clip1_447_553)">
<g clip-path="url(#clip2_447_553)">
<mask id="path-1-inside-1_447_553" fill="#0047d4">
<path d="M36.1797 18.8974C36.1797 28.8373 28.122 36.8999 18.1773 36.8999C8.23251 36.8999 0.179688 28.8373 0.179688 18.8974C0.179688 8.95755 8.23736 0.89502 18.1821 0.89502C28.1269 0.89502 36.1845 8.95269 36.1845 18.8974"/>
</mask>
<path d="M36.1797 18.8974H35.1797C35.1797 28.2852 27.5696 35.8999 18.1773 35.8999V36.8999V37.8999C28.6745 37.8999 37.1797 29.3895 37.1797 18.8974H36.1797ZM18.1773 36.8999V35.8999C8.78532 35.8999 1.17969 28.2856 1.17969 18.8974H0.179688H-0.820312C-0.820312 29.3891 7.6797 37.8999 18.1773 37.8999V36.8999ZM0.179688 18.8974H1.17969C1.17969 9.50965 8.78982 1.89502 18.1821 1.89502V0.89502V-0.10498C7.6849 -0.10498 -0.820312 8.40544 -0.820312 18.8974H0.179688ZM18.1821 0.89502V1.89502C27.5746 1.89502 35.1845 9.50498 35.1845 18.8974H36.1845H37.1845C37.1845 8.40041 28.6791 -0.10498 18.1821 -0.10498V0.89502Z" fill="#0047d4" mask="url(#path-1-inside-1_447_553)"/>
<path d="M21.7679 10.3352C21.7679 10.3886 21.7582 10.4419 21.7582 10.4953C21.7582 11.3442 21.7582 12.1932 21.7582 13.0421C21.7582 13.1585 21.7243 13.1877 21.6078 13.1877C21.147 13.1877 20.6861 13.1877 20.2204 13.1877C20.0652 13.1877 19.9051 13.2168 19.7499 13.2459C19.4588 13.2992 19.2454 13.5369 19.2357 13.8668C19.2114 14.4635 19.2163 15.065 19.2066 15.6617C19.2066 15.7733 19.2793 15.7539 19.3424 15.7539H21.7679C21.6661 16.7144 21.569 17.6507 21.4672 18.6015H19.2114V18.781C19.2114 21.4248 19.2114 24.0687 19.2114 26.7125C19.2114 26.7659 19.2114 26.8192 19.2114 26.8726H16.1213C16.1213 26.6252 16.1213 26.3778 16.1213 26.1352C16.1213 23.6951 16.1213 21.2599 16.1213 18.8198V18.6112H14.0644C14.0644 18.553 14.0547 18.5093 14.0547 18.4705C14.0547 17.6167 14.0547 16.7629 14.0547 15.9091C14.0547 15.7927 14.0886 15.7636 14.2051 15.7636C14.7969 15.7636 15.3839 15.7636 15.9757 15.7636C16.1019 15.7636 16.1261 15.7248 16.131 15.6035C16.131 14.837 16.131 14.0706 16.1601 13.3041C16.1795 12.7462 16.2959 12.2077 16.553 11.7032C16.8344 11.1502 17.2758 10.7767 17.8628 10.5875C18.1878 10.4856 18.5323 10.4419 18.867 10.3692C18.9155 10.3595 18.9591 10.3498 19.0077 10.3401H21.7825L21.7679 10.3352Z" fill="#0047d4"/>
</g>
</g>
</g>
<defs>
<clipPath id="clip0_447_553">
<rect width="36" height="36" fill="#0047d4" transform="translate(0.179688 0.89502)"/>
</clipPath>
<clipPath id="clip1_447_553">
<rect width="36" height="36" fill="#0047d4" transform="translate(0.179688 0.89502)"/>
</clipPath>
<clipPath id="clip2_447_553">
<rect width="36" height="36" fill="#0047d4" transform="translate(0.179688 0.89502)"/>
</clipPath>
</defs>
</svg>
