<?xml version="1.0" encoding="UTF-8"?><svg id="Layer_1" xmlns="http://www.w3.org/2000/svg" viewBox="0 0 53.67 52.02"><defs><style>.cls-1{fill:#7e8b8c;}</style></defs><path class="cls-1" d="M16.14,47.3c3.15,0,5.71-2.56,5.71-5.71s-2.56-5.71-5.71-5.71-5.71,2.56-5.71,5.71,2.56,5.71,5.71,5.71Zm-3.7-5.71c0-2.04,1.66-3.7,3.7-3.7s3.7,1.66,3.7,3.7-1.66,3.7-3.7,3.7-3.7-1.66-3.7-3.7Z"/><path class="cls-1" d="M35.82,42.34V1c0-.55-.45-1-1-1s-1,.45-1,1v.65H13.75c-.55,0-1,.45-1,1v13.54c0,.55,.45,1,1,1h20.06v25.04c-3.42-.15-6.15-.16-6.97-.16-.55,0-1,.45-1,1s.45,1,1,1c2.53,0,4.83,.06,6.97,.15v2.06c0,.55,.45,1,1,1s1-.45,1-1v-1.96c9.9,.57,15.13,1.98,15.81,2.68-.83,.93-8.75,2.99-24.79,2.99s-23.79-2-24.76-2.9c.26-.22,1.15-.77,3.89-1.36,.54-.12,.88-.65,.77-1.19-.06-.26-.21-.49-.44-.63-.22-.15-.49-.2-.76-.14-3.88,.84-5.54,1.82-5.54,3.27,0,4.83,24.09,4.97,26.84,4.97s26.83-.14,26.83-4.97c0-3.11-10.01-4.27-17.86-4.71ZM14.75,13.09h4.01c.55,0,1-.45,1-1s-.45-1-1-1h-4.01V3.66h19.06V15.2H14.75v-2.1Z"/><path class="cls-1" d="M30.6,11.08h-7.42c-.55,0-1,.45-1,1s.45,1,1,1h7.42c.55,0,1-.45,1-1s-.45-1-1-1Z"/></svg>