<?xml version="1.0" encoding="UTF-8"?>
<svg id="Layer_1" xmlns="http://www.w3.org/2000/svg" version="1.1" viewBox="0 0 832 128.2">
  <!-- Generator: Adobe Illustrator 29.6.1, SVG Export Plug-In . SVG Version: 2.1.1 Build 9)  -->
  <defs>
    <style>
      .st0 {
        fill: #0047d4;
      }
    </style>
  </defs>
  <g>
    <path class="st0" d="M56.6,47.2c0,3.3,0,7.3.2,10.4.2,4.4.9,6.3,4.7,7.8l-.3,2.6c-4.2-.3-7.1-.3-9.5-.3s-5.5,0-9.7.3l-.3-2.6c3.8-1.5,4.5-3.6,4.7-7.8.2-3.1.2-7.1.2-10.4v-11.7H14.7v11.7c0,3.3,0,7.3.2,10.4.2,4.4.9,6.3,4.8,7.8l-.3,2.6c-4.2-.3-7.2-.3-9.6-.3s-5.4,0-9.6.3l-.3-2.6c3.8-1.5,4.4-3.6,4.6-7.8.3-3.1.3-7.1.3-10.4v-25.2c0-3.3,0-7.2-.3-10.4-.3-4.2-.9-6.3-4.6-7.8L.3,1.2c4.2.3,7.2.3,9.6.3s5.4,0,9.6-.3l.3,2.6c-3.9,1.6-4.6,3.5-4.8,7.8,0,3.2-.2,7.1-.2,10.4v8.5h32v-8.5c0-3.3,0-7.2-.2-10.4-.3-4.2-.9-6.3-4.7-7.8l.3-2.6c4.2.3,7.3.3,9.7.3s5.3,0,9.5-.3l.3,2.6c-3.8,1.6-4.5,3.5-4.7,7.8-.2,3.2-.2,7.1-.2,10.4v25.2Z"/>
    <path class="st0" d="M121.5,65.5l-.6,2.5c-3.4-.2-6.6-.3-9-.3s-5.6,0-9.3.3v-2.5c2.5-1.2,3.7-2.1,4.7-3.9,1.2-2.2,2.1-5.6,2.9-13.5l.5-4.3h-20l-2.7,3.4c-8.2,10.3-9.3,13.5-9.3,15.3s.7,2.1,3,2.9l-.4,2.5c-3.4-.2-5.8-.3-7.9-.3s-4,0-8.2.3v-2.6c3-1.9,5.3-4.5,16-18.2L117.1,1.2h7.3l-4.9,46c-.9,8-1,11.7-1,13.8s.9,3.3,3,4.5ZM94.5,38.8h16.8l2.7-25.4-19.4,25.4Z"/>
    <path class="st0" d="M688.9,65.5l-.6,2.5c-3.4-.2-6.6-.3-9-.3s-5.6,0-9.3.3v-2.5c2.5-1.2,3.7-2.1,4.7-3.9,1.2-2.2,2.1-5.6,2.9-13.5l.5-4.3h-20l-2.7,3.4c-8.2,10.3-9.3,13.5-9.3,15.3s.7,2.1,3,2.9l-.4,2.5c-3.4-.2-5.8-.3-7.9-.3s-4,0-8.2.3v-2.6c3-1.9,5.3-4.5,16-18.2L684.4,1.2h7.3l-4.9,46c-.9,8-1,11.7-1,13.8s.9,3.3,3,4.5ZM661.9,38.8h16.8l2.7-25.4-19.4,25.4Z"/>
    <path class="st0" d="M168.8,69.3h-3.4l-24-55.5-1.1,33.4c0,2.2,0,6.5,0,9.1,0,4.2.7,7.8,5,9.1l-.4,2.6c-3.1-.2-5.6-.3-7.9-.3s-4.1,0-7.5.3l-.2-2.6c3.9-1.6,4.6-3.7,5-7.8.3-3.3.5-7.1.6-10.5l1-25.2c0-2.2.2-3.6.2-5.4,0-5.9-.5-10.7-5.9-12.8l.3-2.6c5.8.3,10.9.3,16.5.3l22.6,52.8L191.6,1.5c5.2,0,12.5,0,16.2-.3l.3,2.6c-3.9,1.5-5.1,3.5-5.1,7.8s0,5.6,0,8.2l.7,27.5c0,3.3.4,7.5.6,10.6.3,4.4.9,5.9,4.8,7.6l-.4,2.6c-3.7-.3-5.9-.3-8.3-.3s-7.2,0-10.9.3l-.3-2.7c4.8-1.2,4.8-6.2,4.8-10.7s0-5,0-7.4l-.9-34.4-24.3,56.5Z"/>
    <path class="st0" d="M230.5,47.2c0,3.3,0,7.3.3,10.4.4,4.4.9,6.3,4.7,7.8l-.3,2.6c-4.2-.3-7.2-.3-9.6-.3s-5.4,0-9.6.3l-.3-2.6c3.8-1.5,4.4-3.6,4.6-7.8.3-3.1.3-7.1.3-10.4v-25.2c0-3.3,0-7.2-.3-10.4-.3-4.2-.9-6.3-4.6-7.8l.3-2.6c4.2.3,7.2.3,9.6.3s5.4,0,9.6-.3l.3,2.6c-3.9,1.6-4.4,3.5-4.7,7.8-.3,3.2-.3,7.1-.3,10.4v25.2Z"/>
    <path class="st0" d="M257.6,47.6c0,3.3,0,8.4.3,10.3.4,4.6,1.8,5.5,6.1,5.5s5.7,0,8.3-.6c3.6-.7,5.5-2.5,6.9-4.6,1.4-2.1,2.5-4.5,3.8-8.3l3.4.7c-.7,6.3-1.7,12-2.7,17.6-7.2-.4-17.3-.5-29.5-.5s-6.8,0-11,.3l-.3-2.6c3.8-1.5,4.4-3.6,4.6-7.8.3-3.1.3-7.1.3-10.4v-25.2c0-3.3,0-7.2-.3-10.4-.3-4.2-.9-6.3-4.6-7.8l.3-2.6c4.2.3,7.2.3,9.5.3s5.4,0,9.6-.3l.3,2.6c-3.8,1.5-4.4,3.6-4.6,7.8-.3,3.2-.3,7.1-.3,10.4v25.6Z"/>
    <path class="st0" d="M314.2,47.2c0,3.3,0,7.3.3,10.4.4,4.7,1,6.3,5.7,7.8l-.3,2.6c-4.2-.3-8.1-.3-10.5-.3s-6.3,0-10.5.3l-.3-2.6c4.5-1.5,5.3-3.2,5.6-7.8.2-3.1.3-7.1.3-10.4v-27.1c0-3.5,0-6.7-.3-9.7-.3-3.8-.9-4.6-5.3-4.6s-3.9.2-6,.6c-2.3.4-4,1.3-5.6,2.9-1.5,1.5-2.8,3.8-4.1,7.3l-3-.4c.3-5.2.7-9.9,1-15,3.7.3,6.9.3,10.8.3h34.6c3.9,0,7.1,0,10.8-.3.4,5,.8,9.8,1,15l-3,.4c-1.2-3.5-2.6-5.8-4.1-7.3-1.6-1.6-3.3-2.6-5.6-2.9-2.1-.4-3.7-.6-6-.6-4.5,0-5,.9-5.3,4.6-.3,2.9-.3,6.2-.3,9.7v27.1Z"/>
    <path class="st0" d="M377.8,0c20.6,0,35.5,15,35.5,34.7s-15.5,34.7-34.7,34.7-36.1-14.1-36.1-34.7S358.3,0,377.8,0ZM353.8,33.5c0,18.9,11.7,30.4,25.7,30.4s22.3-11.5,22.3-28.2-11.2-30.2-25.2-30.2-22.7,9.9-22.7,28Z"/>
    <path class="st0" d="M474.9,69.7l-45.9-55.4v33c0,3.3,0,7.3.3,10.4.3,4.3,1,6.2,4.9,7.8l-.4,2.6c-3.1-.2-5.4-.3-7.6-.3s-4.4,0-7.6.3l-.4-2.6c3.9-1.6,4.6-3.3,4.9-7.8.2-3.1.2-7.1.2-10.4v-25c0-3.6,0-7.1-.2-10.2-.3-4.5-1.2-6.6-5.1-8.2l.3-2.6c2.9.2,8.2.3,12.7.3l41.2,49.4v-28.9c0-3.4,0-7.3-.2-10.4-.3-4.5-.9-6.2-4.8-7.8l.3-2.6c3.9.2,5.3.3,7.5.3s4.7,0,7.7-.3l.3,2.6c-3.8,1.5-4.5,3.4-4.8,7.8-.2,3.1-.3,7.1-.3,10.4v31.1c0,4.5,0,10.6.4,15.5l-3.4,1.1Z"/>
    <path class="st0" d="M528.3,47.2c0,3.3,0,7.3.3,10.4.4,4.4.9,6.3,4.7,7.8l-.3,2.6c-4.2-.3-7.2-.3-9.6-.3s-5.4,0-9.6.3l-.3-2.6c3.8-1.5,4.4-3.6,4.6-7.8.3-3.1.3-7.1.3-10.4v-25.2c0-3.3,0-7.2-.3-10.4-.3-4.2-.9-6.3-4.6-7.8l.3-2.6c4.2.3,7.2.3,9.6.3s5.4,0,9.6-.3l.3,2.6c-3.9,1.6-4.4,3.5-4.7,7.8-.3,3.2-.3,7.1-.3,10.4v25.2Z"/>
    <path class="st0" d="M554.3,23.1c1.7,1.7,3,2.7,9.1,6.8,7.6,5.1,9.8,6.8,12.1,9.5,2.9,3.3,4.5,7.9,4.5,12,0,11-8.8,17.9-21.3,17.9s-11.8-1-16.9-3.1c-1-5.2-1.6-11.1-2.1-16.5,1-.2,2.1-.5,3.1-.8,1.3,3.5,2.7,6.4,4.3,8.7,2.8,4.4,6.4,6.5,12.5,6.5s11.2-4.1,11.2-10.1-3-8.9-13-15.8c-8.3-5.8-10.2-7.5-12.6-10.5-2.5-3.1-3.5-6.3-3.5-10.7,0-9.9,8.3-17.1,20-17.1s11.7,1.5,16.8,4.1c0,2.7.2,5,.2,7.4s0,4.5-.2,7.3l-2.9.2c-1.3-4-2.9-7.3-4.7-9.4-2.7-3-5.6-4.6-9.5-4.6-6.3,0-10.6,4.3-10.6,10.4s.8,5.1,3.5,7.8Z"/>
    <path class="st0" d="M602.2,47.6c0,3.3,0,8.4.3,10.3.4,4.6,1.8,5.5,6.1,5.5s5.7,0,8.3-.6c3.6-.7,5.5-2.5,6.9-4.6,1.4-2.1,2.5-4.5,3.8-8.3l3.4.7c-.7,6.3-1.7,12-2.7,17.6-7.2-.4-17.3-.5-29.5-.5s-6.8,0-11,.3l-.3-2.6c3.8-1.5,4.4-3.6,4.6-7.8.3-3.1.3-7.1.3-10.4v-25.2c0-3.3,0-7.2-.3-10.4-.3-4.2-.9-6.3-4.6-7.8l.3-2.6c4.2.3,7.2.3,9.5.3s5.4,0,9.6-.3l.3,2.6c-3.8,1.5-4.4,3.6-4.6,7.8-.3,3.2-.3,7.1-.3,10.4v25.6Z"/>
    <path class="st0" d="M754.7,69.7l-45.9-55.4v33c0,3.3,0,7.3.3,10.4.3,4.3,1,6.2,4.9,7.8l-.4,2.6c-3.1-.2-5.4-.3-7.6-.3s-4.4,0-7.6.3l-.4-2.6c3.9-1.6,4.6-3.3,4.9-7.8.2-3.1.2-7.1.2-10.4v-25c0-3.6,0-7.1-.2-10.2-.3-4.5-1.2-6.6-5.1-8.2l.3-2.6c2.9.2,8.2.3,12.7.3l41.2,49.4v-28.9c0-3.4,0-7.3-.2-10.4-.3-4.5-.9-6.2-4.8-7.8l.3-2.6c3.9.2,5.3.3,7.5.3s4.7,0,7.7-.3l.3,2.6c-3.8,1.5-4.5,3.4-4.8,7.8-.2,3.1-.3,7.1-.3,10.4v31.1c0,4.5,0,10.6.4,15.5l-3.4,1.1Z"/>
    <path class="st0" d="M778.5,67.6c-2.4,0-5,0-9.2.3l-.3-2.6c3.8-1.5,4.4-3.6,4.6-7.8.3-3.1.3-7.1.3-10.4v-25.2c0-3.3,0-7.2-.3-10.4-.3-4.2-.9-6.3-4.6-7.8l.3-2.6c4.2.3,6.9.3,9.3.3,5.5,0,9.4-.5,16.8-.5,19.7,0,36.7,11.8,36.7,34.1s-14.8,33.3-36.2,33.3-13.3-.8-17.3-.8ZM820.9,35c0-18.2-10.8-29.1-26.5-29.1s-10,.7-10.3,4.4c-.3,2.9-.3,6.3-.3,9.6v28c0,3.3.2,8.3.3,10.1.4,4.7,2.7,5.4,11.1,5.4,16.9,0,25.8-10.3,25.8-28.4Z"/>
  </g>
  <g>
    <path class="st0" d="M163.4,117.4c0-6.2,4.6-10.8,10.8-10.8s7,1.7,9.2,4.9l-3.3,2.4c-1.6-2.5-3.8-3.4-5.9-3.4-3.8,0-6.5,2.9-6.5,7s2.8,7,6.6,7,5.5-2.1,5.9-4.3h-6.4v-3.6h10.6c0,.5,0,1.2,0,1.7,0,5.4-3.8,10.1-10.3,10.1s-10.9-4.7-10.9-10.8Z"/>
    <path class="st0" d="M188.3,127.9v-21h9.3c4.6,0,7.5,2.7,7.5,6.8s-1.5,4.9-3.9,5.9l4.8,8.4h-4.6l-4.3-7.7h-4.6v7.6h-4.2ZM192.4,116.6h4.8c2.3,0,3.5-1.4,3.5-3s-1.2-3.1-3.5-3.1h-4.8v6.1Z"/>
    <path class="st0" d="M209.3,106.8h15v3.6h-10.8v4.8h9.4v3.6h-9.4v5.3h11v3.6h-15.2v-21Z"/>
    <path class="st0" d="M225.8,127.9l8.5-21h4.8l8.5,21h-4.5l-1.5-4.1h-9.8l-1.6,4.1h-4.5ZM240.4,120.4l-3.7-9.2-3.7,9.2h7.4Z"/>
    <path class="st0" d="M245.3,106.8h17.3v3.7h-6.6v17.3h-4.2v-17.3h-6.6v-3.7Z"/>
    <path class="st0" d="M272.3,106.8h9.7c3.8,0,6.5,2.3,6.5,5.7s-.8,3.6-2.8,4.4c2.3.9,3.5,2.9,3.5,5.1,0,3.4-2.6,5.8-6.5,5.8h-10.4v-21ZM276.5,110.4v5.1h4.9c1.7,0,2.7-1.1,2.7-2.5s-1.2-2.6-2.9-2.6h-4.8ZM276.5,118.9v5.4h5.5c1.7,0,2.8-1.1,2.8-2.6s-1.1-2.8-2.8-2.8h-5.5Z"/>
    <path class="st0" d="M290.4,127.9l8.5-21h4.8l8.5,21h-4.5l-1.5-4.1h-9.8l-1.6,4.1h-4.5ZM304.9,120.4l-3.7-9.2-3.7,9.2h7.4Z"/>
    <path class="st0" d="M314.8,127.9v-21h9.3c4.6,0,7.5,2.7,7.5,6.8s-1.5,4.9-3.9,5.9l4.8,8.4h-4.6l-4.3-7.7h-4.6v7.6h-4.2ZM319,116.6h4.8c2.3,0,3.5-1.4,3.5-3s-1.2-3.1-3.5-3.1h-4.8v6.1Z"/>
    <path class="st0" d="M335.9,127.9v-21h9.3c4.6,0,7.5,2.7,7.5,6.8s-1.5,4.9-3.9,5.9l4.8,8.4h-4.6l-4.3-7.7h-4.6v7.6h-4.2ZM340.1,116.6h4.8c2.3,0,3.5-1.4,3.5-3s-1.2-3.1-3.5-3.1h-4.8v6.1Z"/>
    <path class="st0" d="M361.1,127.9h-4.2v-21h4.2v21Z"/>
    <path class="st0" d="M366.4,106.8h15v3.6h-10.8v4.8h9.4v3.6h-9.4v5.3h11v3.6h-15.2v-21Z"/>
    <path class="st0" d="M385.5,127.9v-21h9.3c4.6,0,7.5,2.7,7.5,6.8s-1.5,4.9-3.9,5.9l4.8,8.4h-4.6l-4.3-7.7h-4.6v7.6h-4.2ZM389.7,116.6h4.8c2.3,0,3.5-1.4,3.5-3s-1.2-3.1-3.5-3.1h-4.8v6.1Z"/>
    <path class="st0" d="M414.2,127.9v-21h9.3c4.6,0,7.5,2.7,7.5,6.8s-1.5,4.9-3.9,5.9l4.8,8.4h-4.6l-4.3-7.7h-4.6v7.6h-4.2ZM418.4,116.6h4.8c2.3,0,3.5-1.4,3.5-3s-1.2-3.1-3.5-3.1h-4.8v6.1Z"/>
    <path class="st0" d="M435.3,106.8h15v3.6h-10.8v4.8h9.4v3.6h-9.4v5.3h11v3.6h-15.2v-21Z"/>
    <path class="st0" d="M454.4,106.8h15v3.6h-10.8v4.8h9.4v3.6h-9.4v5.3h11v3.6h-15.2v-21Z"/>
    <path class="st0" d="M473.4,106.8h15v3.6h-10.8v4.9h8.5v3.6h-8.5v8.8h-4.2v-21Z"/>
    <path class="st0" d="M495.3,127.9l8.5-21h4.8l8.5,21h-4.5l-1.5-4.1h-9.8l-1.6,4.1h-4.5ZM509.9,120.4l-3.7-9.2-3.7,9.2h7.4Z"/>
    <path class="st0" d="M519,119.9v-13h4.2v13c0,2.9,2,4.6,4.8,4.6s4.8-1.8,4.8-4.6v-13h4.2v13c0,5.1-3.6,8.3-9,8.3s-9-3.3-9-8.3Z"/>
    <path class="st0" d="M543.8,121c1,2,2.9,3.4,5.4,3.4s3.6-1,3.6-2.3-1.6-2.1-4.1-2.9c-4-1.3-7.3-2.5-7.3-6.6s3.9-6,7.5-6,6.4,2.2,7.8,4.6l-3.2,2.3c-.9-1.5-2.4-3.1-4.7-3.1s-3.1.9-3.1,2.2,1.5,1.9,4.2,2.9c4,1.4,7.2,2.5,7.2,6.6s-4.2,6.2-7.9,6.2-7.2-2.1-8.4-5l3.1-2.2Z"/>
    <path class="st0" d="M558.2,106.8h17.3v3.7h-6.6v17.3h-4.2v-17.3h-6.6v-3.7Z"/>
    <path class="st0" d="M578.5,127.9v-21h9.3c4.6,0,7.5,2.7,7.5,6.8s-1.5,4.9-3.9,5.9l4.8,8.4h-4.6l-4.3-7.7h-4.6v7.6h-4.2ZM582.7,116.6h4.8c2.3,0,3.5-1.4,3.5-3s-1.2-3.1-3.5-3.1h-4.8v6.1Z"/>
    <path class="st0" d="M597,127.9l8.5-21h4.8l8.5,21h-4.5l-1.5-4.1h-9.8l-1.6,4.1h-4.5ZM611.6,120.4l-3.7-9.2-3.7,9.2h7.4Z"/>
    <path class="st0" d="M637,127.9h-15.5v-21h4.2v17.4h11.3v3.6Z"/>
    <path class="st0" d="M644.2,127.9h-4.2v-21h4.2v21Z"/>
    <path class="st0" d="M646.9,127.9l8.5-21h4.8l8.5,21h-4.5l-1.5-4.1h-9.8l-1.6,4.1h-4.5ZM661.5,120.4l-3.7-9.2-3.7,9.2h7.4Z"/>
  </g>
</svg>