<?xml version="1.0" encoding="UTF-8"?>
<svg id="Layer_1" data-name="Layer 1" xmlns="http://www.w3.org/2000/svg" viewBox="0 0 38.46 38.45">
  <defs>
    <style>
      .cls-1 {
        fill: #fff;
        stroke-width: 0px;
      }
    </style>
  </defs>
  <path class="cls-1" d="M3.27,19.04c.1,0,.23,5.72.32,8.57.12,4.25,2.87,7.08,7.12,7.16,5.64.11,11.29.11,16.94,0,4.26-.08,7.06-2.88,7.13-7.14.11-5.64.11-11.29,0-16.94-.08-4.22-2.86-7.01-7.07-7.1-5.68-.11-11.36-.11-17.03,0-3.89.07-6.44,2.29-6.92,6.14-.38,3.08-.34,6.21-.49,9.31M38.46,11.28v15.8c-.07.44-.17.87-.19,1.31-.27,4.66-3.34,8.39-7.89,9.49-1.08.26-2.2.38-3.29.57h-15.8c-.38-.06-.75-.16-1.13-.18-5.46-.28-9.79-4.25-9.99-9.7-.23-6.24-.22-12.51,0-18.75C.35,4.48,4.5.34,9.84.15c6.21-.22,12.45-.19,18.66,0,4.74.14,8.29,3.31,9.42,7.94.26,1.05.37,2.13.54,3.19"/>
  <path class="cls-1" d="M19.22,12.8c-3.55,0-6.39,2.79-6.4,6.3-.01,3.6,2.78,6.45,6.34,6.46,3.54,0,6.39-2.8,6.41-6.3.01-3.6-2.79-6.45-6.35-6.45M29.1,19.16c.02,5.48-4.4,9.92-9.89,9.93-5.48.02-9.93-4.42-9.95-9.89,0-5.47,4.43-9.93,9.91-9.95,5.47-.02,9.91,4.41,9.93,9.91"/>
  <path class="cls-1" d="M29.54,6.56c1.29.04,2.29,1.1,2.26,2.38-.03,1.28-1.1,2.32-2.36,2.31-1.28-.02-2.39-1.18-2.33-2.45.06-1.27,1.14-2.28,2.42-2.24"/>
</svg>