<svg width="37" height="37" viewBox="0 0 37 37" fill="none" xmlns="http://www.w3.org/2000/svg">
<g clip-path="url(#clip0_447_545)">
<g clip-path="url(#clip1_447_545)">
<g clip-path="url(#clip2_447_545)">
<mask id="path-1-inside-1_447_545" fill="#0047d4">
<path d="M36.7812 18.8974C36.7812 28.8373 28.7236 36.8999 18.7788 36.8999C8.83407 36.8999 0.78125 28.8373 0.78125 18.8974C0.78125 8.95755 8.83892 0.89502 18.7837 0.89502C28.7284 0.89502 36.7861 8.95269 36.7861 18.8974"/>
</mask>
<path d="M36.7812 18.8974H35.7812C35.7812 28.2852 28.1711 35.8999 18.7788 35.8999V36.8999V37.8999C29.276 37.8999 37.7812 29.3895 37.7812 18.8974H36.7812ZM18.7788 36.8999V35.8999C9.38688 35.8999 1.78125 28.2856 1.78125 18.8974H0.78125H-0.21875C-0.21875 29.3891 8.28126 37.8999 18.7788 37.8999V36.8999ZM0.78125 18.8974H1.78125C1.78125 9.50965 9.39139 1.89502 18.7837 1.89502V0.89502V-0.10498C8.28646 -0.10498 -0.21875 8.40544 -0.21875 18.8974H0.78125ZM18.7837 0.89502V1.89502C28.1761 1.89502 35.7861 9.50498 35.7861 18.8974H36.7861H37.7861C37.7861 8.40041 29.2807 -0.10498 18.7837 -0.10498V0.89502Z" fill="#0047d4" mask="url(#path-1-inside-1_447_545)"/>
<path d="M11.0379 18.8053C11.0864 18.8053 11.1495 21.5802 11.1931 22.9627C11.2513 25.0244 12.5854 26.3973 14.6471 26.4361C17.3831 26.4895 20.124 26.4895 22.8649 26.4361C24.9314 26.3973 26.2897 25.039 26.3237 22.9724C26.3771 20.2364 26.3771 17.4955 26.3237 14.7547C26.2849 12.7075 24.9363 11.354 22.894 11.3104C20.1386 11.257 17.3831 11.257 14.6326 11.3104C12.7455 11.3443 11.5084 12.4213 11.2756 14.289C11.0913 15.7831 11.1107 17.3015 11.0379 18.8053ZM28.1138 15.0409V22.7056C28.0798 22.9191 28.0313 23.1277 28.0216 23.3411C27.8906 25.6017 26.4013 27.4112 24.1941 27.9448C23.6702 28.0709 23.1268 28.1291 22.5981 28.2213H14.9333C14.749 28.1922 14.5695 28.1437 14.3852 28.134C11.7365 27.9982 9.63593 26.0723 9.5389 23.4284C9.42733 20.4013 9.43218 17.3597 9.5389 14.3326C9.62622 11.7421 11.6394 9.73378 14.2299 9.64646C17.2424 9.53974 20.2695 9.55429 23.2821 9.64646C25.5815 9.71438 27.3036 11.2522 27.8518 13.4982C27.9779 14.0076 28.0313 14.5315 28.1138 15.0457" fill="#0047d4"/>
<path d="M18.7731 15.7782C17.051 15.7782 15.6732 17.1317 15.6684 18.8344C15.6635 20.5808 17.017 21.9634 18.744 21.9682C20.4613 21.9682 21.8438 20.6099 21.8535 18.912C21.8584 17.1656 20.5001 15.7831 18.7731 15.7831M23.566 18.8635C23.5757 21.5219 21.4315 23.6758 18.7683 23.6806C16.1098 23.6903 13.9511 21.5365 13.9414 18.8829C13.9414 16.2294 16.0904 14.0658 18.7488 14.0561C21.4024 14.0464 23.5563 16.1954 23.566 18.8635Z" fill="#0047d4"/>
<path d="M23.7815 12.751C24.4073 12.7704 24.8924 13.2847 24.8779 13.9056C24.8633 14.5265 24.3442 15.0311 23.733 15.0262C23.1121 15.0165 22.5736 14.4538 22.6027 13.8377C22.6318 13.2216 23.1557 12.7316 23.7767 12.751" fill="#0047d4"/>
</g>
</g>
</g>
<defs>
<clipPath id="clip0_447_545">
<rect width="36" height="36" fill="#0047d4" transform="translate(0.78125 0.89502)"/>
</clipPath>
<clipPath id="clip1_447_545">
<rect width="36" height="36" fill="#0047d4" transform="translate(0.78125 0.89502)"/>
</clipPath>
<clipPath id="clip2_447_545">
<rect width="36" height="36" fill="#0047d4" transform="translate(0.78125 0.89502)"/>
</clipPath>
</defs>
</svg>
