<svg width="37" height="37" viewBox="0 0 37 37" fill="none" xmlns="http://www.w3.org/2000/svg">
<g clip-path="url(#clip0_447_565)">
<g clip-path="url(#clip1_447_565)">
<g clip-path="url(#clip2_447_565)">
<mask id="path-1-inside-1_447_565" fill="#0047d4">
<path d="M36.9805 18.8974C36.9805 28.8373 28.9228 36.8999 18.978 36.8999C9.03329 36.8999 0.980469 28.8373 0.980469 18.8974C0.980469 8.95755 9.03814 0.89502 18.9829 0.89502C28.9276 0.89502 36.9853 8.95269 36.9853 18.8974"/>
</mask>
<path d="M36.9805 18.8974H35.9805C35.9805 28.2852 28.3703 35.8999 18.978 35.8999V36.8999V37.8999C29.4753 37.8999 37.9805 29.3895 37.9805 18.8974H36.9805ZM18.978 36.8999V35.8999C9.5861 35.8999 1.98047 28.2856 1.98047 18.8974H0.980469H-0.0195312C-0.0195312 29.3891 8.48048 37.8999 18.978 37.8999V36.8999ZM0.980469 18.8974H1.98047C1.98047 9.50965 9.5906 1.89502 18.9829 1.89502V0.89502V-0.10498C8.48568 -0.10498 -0.0195312 8.40544 -0.0195312 18.8974H0.980469ZM18.9829 0.89502V1.89502C28.3754 1.89502 35.9853 9.50498 35.9853 18.8974H36.9853H37.9853C37.9853 8.40041 29.4799 -0.10498 18.9829 -0.10498V0.89502Z" fill="#0047d4" mask="url(#path-1-inside-1_447_565)"/>
<path d="M12.2854 14.2244H15.5841V24.8386H12.2854V14.2244ZM13.9348 8.95129C14.9875 8.95129 15.8461 9.80994 15.8461 10.8626C15.8461 11.9153 14.9875 12.774 13.9348 12.774C12.8821 12.774 12.0234 11.9153 12.0234 10.8626C12.0234 9.80994 12.8772 8.95129 13.9348 8.95129Z" fill="#0047d4"/>
<path d="M17.6572 14.2244H20.8201V15.6748H20.8638C21.3052 14.8405 22.3822 13.9624 23.983 13.9624C27.3254 13.9624 27.9415 16.16 27.9415 19.0172V24.8386H24.6428V19.677C24.6428 18.4448 24.6234 16.8634 22.9303 16.8634C21.2373 16.8634 20.9511 18.2071 20.9511 19.5897V24.8386H17.6523V14.2244H17.6572Z" fill="#0047d4"/>
</g>
</g>
</g>
<defs>
<clipPath id="clip0_447_565">
<rect width="36" height="36" fill="#0047d4" transform="translate(0.980469 0.89502)"/>
</clipPath>
<clipPath id="clip1_447_565">
<rect width="36" height="36" fill="#0047d4" transform="translate(0.980469 0.89502)"/>
</clipPath>
<clipPath id="clip2_447_565">
<rect width="36" height="36" fill="#0047d4" transform="translate(0.980469 0.89502)"/>
</clipPath>
</defs>
</svg>
