<?xml version="1.0" encoding="UTF-8"?><svg id="Layer_1" xmlns="http://www.w3.org/2000/svg" viewBox="0 0 43.86 52.3"><defs><style>.cls-1{fill:#7e8b8c;}</style></defs><path class="cls-1" d="M21.93,8.44c-1.4,0-2.53-1.14-2.53-2.53s1.14-2.53,2.53-2.53,2.53,1.14,2.53,2.53-1.14,2.53-2.53,2.53Zm0-3.37c-.47,0-.84,.38-.84,.84s.38,.84,.84,.84,.84-.38,.84-.84-.38-.84-.84-.84Z"/><path class="cls-1" d="M21.93,52.3c-1.35,0-2.68-.65-3.96-1.92-.18-.13-.91-.34-1.55-.53-3.13-.93-9.53-2.84-13.36-9.82l-1.75,1.16c-.26,.17-.59,.19-.86,.04-.27-.14-.45-.42-.45-.73,0-.02-.04-2.49,.05-4.97,.05-1.47,.14-2.66,.25-3.54,.17-1.31,.42-2.17,1.11-2.42,.14-.05,.29-.07,.45-.07,.64,0,1.77,.36,4.9,3.18,1.65,1.48,3.06,2.94,3.12,3.01,.21,.22,.29,.53,.21,.82-.08,.29-.31,.51-.61,.59l-2.26,.56c2.94,4.27,8.02,5.23,11.34,5.35l.62-25.29h-4.01c-1.86,0-3.37-1.51-3.37-3.37,0-.93,.76-1.69,1.69-1.69h5.82l.03-1.44c-2.01-.97-3.33-3.04-3.33-5.31,0-3.26,2.65-5.9,5.9-5.9s5.9,2.65,5.9,5.9c0,2.27-1.31,4.34-3.33,5.31l.03,1.44h5.82c.93,0,1.69,.76,1.69,1.69,0,1.86-1.51,3.37-3.37,3.37h-4.01l.62,25.29c3.32-.12,8.4-1.08,11.34-5.35l-2.26-.56c-.29-.07-.52-.3-.61-.59-.08-.29,0-.6,.21-.82,.06-.06,1.47-1.52,3.12-3.01,3.13-2.82,4.26-3.18,4.9-3.18,.16,0,.31,.02,.45,.07,.69,.24,.94,1.1,1.11,2.41,.11,.88,.2,2.07,.25,3.54,.09,2.48,.05,4.95,.05,4.97,0,.31-.18,.59-.45,.73s-.6,.13-.86-.04l-1.75-1.16c-3.83,6.98-10.22,8.89-13.36,9.82-.64,.19-1.37,.41-1.55,.53-1.28,1.27-2.61,1.92-3.96,1.92ZM3.38,37.96c.07,0,.15,0,.22,.03,.23,.06,.43,.23,.54,.44,3.44,7.02,9.5,8.83,12.76,9.8,1.16,.35,1.86,.55,2.25,.94,.96,.96,1.89,1.44,2.78,1.44s1.82-.48,2.78-1.44c.39-.39,1.09-.6,2.25-.94,3.26-.97,9.33-2.78,12.76-9.8,.11-.22,.3-.38,.54-.44,.23-.06,.49-.02,.69,.11l1.23,.82c0-3.22-.16-6.53-.45-7.65-.43,.19-1.44,.79-3.56,2.71-.73,.66-1.41,1.32-1.95,1.84l1.93,.48c.25,.06,.46,.24,.57,.48,.1,.24,.09,.52-.04,.74-3.45,6.25-10.39,7.18-14.23,7.18-.46,0-.83-.37-.84-.82l-.66-26.99c0-.23,.08-.45,.24-.61,.16-.16,.38-.25,.6-.25h4.88c.93,0,1.69-.76,1.69-1.69h-6.65c-.46,0-.83-.37-.84-.82l-.07-2.83c0-.36,.22-.69,.56-.81,1.66-.6,2.78-2.19,2.78-3.96,0-2.33-1.89-4.22-4.22-4.22s-4.22,1.89-4.22,4.22c0,1.77,1.12,3.37,2.78,3.96,.34,.12,.57,.45,.56,.81l-.07,2.83c-.01,.46-.39,.82-.84,.82h-6.65c0,.93,.76,1.69,1.69,1.69h4.88c.23,0,.44,.09,.6,.25,.16,.16,.25,.38,.24,.61l-.66,26.99c-.01,.46-.39,.82-.84,.82-3.83,0-10.77-.93-14.23-7.18-.13-.23-.14-.5-.04-.74,.1-.24,.31-.42,.57-.48l1.93-.48c-.53-.52-1.22-1.18-1.95-1.84-2.11-1.91-3.12-2.51-3.55-2.7-.3,1.12-.45,4.43-.45,7.65l1.23-.82c.14-.09,.3-.14,.47-.14Z"/></svg>