<svg id="Layer_1" data-name="Layer 1" xmlns="http://www.w3.org/2000/svg" viewBox="0 0 35 35"><defs><style>.cls-1{fill:#779cb3;}.cls-2{fill:#fff;}</style></defs><title>HI icons</title><path class="cls-1" d="M17.5,35A17.5,17.5,0,1,0,0,17.5,17.51,17.51,0,0,0,17.5,35"/><path class="cls-2" d="M25.76,16.59a5.26,5.26,0,0,1-2.12,1.1,7,7,0,0,1-1.65.15A1.72,1.72,0,0,1,20.56,17a15.23,15.23,0,0,1-1.64.78,2.54,2.54,0,0,1-1.84-.06A1.66,1.66,0,0,1,16,15.82c.09-.57.28-1.13.42-1.7A9.14,9.14,0,0,0,16.7,13c.06-.6-.41-.9-.91-.58a2.76,2.76,0,0,0-.83.87,8.91,8.91,0,0,0-1.19,4c0,.42-.08.48-.49.5l-1.88.11c-.4,0-.56-.11-.51-.5.12-.84.29-1.67.45-2.49.1-.55.23-1.09.35-1.63a.8.8,0,0,0,0-.15c0-.28,0-.58-.28-.74a.68.68,0,0,0-.73.1,3.19,3.19,0,0,0-1.22,1.47,9.9,9.9,0,0,0-.86,3.42c0,.27-.14.4-.41.41l-1.85.11c-.52,0-.7-.17-.6-.69.15-.77.32-1.53.48-2.3s.32-1.46.43-2.19a2.73,2.73,0,0,0-.09-.94c-.06-.28,0-.52.25-.63A5.69,5.69,0,0,1,8,10.75a8.44,8.44,0,0,1,1.24-.07.56.56,0,0,1,.62.71c0,.26-.09.52-.14.78l.08.09A1.13,1.13,0,0,1,10,12a4.11,4.11,0,0,1,2.33-1.29,1.9,1.9,0,0,1,2.41,1.36l.22-.19a4.2,4.2,0,0,1,2.33-1.18,4.45,4.45,0,0,1,1.41.09,1.28,1.28,0,0,1,1,1.55c-.11.65-.32,1.29-.46,1.94a5,5,0,0,0-.15,1,.73.73,0,0,0,1.16.62.47.47,0,0,0,.19-.25c.2-.86.37-1.72.57-2.58a2.15,2.15,0,0,0,0-1.46.37.37,0,0,1,.24-.51,6.21,6.21,0,0,1,1.18-.37,7.71,7.71,0,0,1,1.18-.07c.45,0,.71.22.64.65-.11.67-.3,1.33-.44,2a18.24,18.24,0,0,0-.32,1.94c-.06.67.4,1,1,.69a2.32,2.32,0,0,0,1.25-1.37,7.25,7.25,0,0,0,.41-2.34,1.66,1.66,0,0,0-.11-.49c-.1-.32-.06-.52.24-.65a5,5,0,0,1,1.15-.36,6.88,6.88,0,0,1,1.12-.07c.56,0,.81.26.7.82s-.24,1-.34,1.54c-.31,1.61-.59,3.23-.9,4.84A13.7,13.7,0,0,1,26.67,22a4.15,4.15,0,0,1-2.73,2.24,3.67,3.67,0,0,1-3.23-.61,2.28,2.28,0,0,1-.82-2.27,2.44,2.44,0,0,1,1.61-2,1,1,0,0,1,.29-.05c.26,0,.31.09.24.33a2.46,2.46,0,0,0-.16.69,1.08,1.08,0,0,0,1,1.07,1.68,1.68,0,0,0,1.65-.8,7.17,7.17,0,0,0,.93-2.44c.11-.49.19-1,.28-1.49"/></svg>