<?xml version="1.0" encoding="UTF-8"?><svg id="Layer_1" xmlns="http://www.w3.org/2000/svg" viewBox="0 0 50.02 49.97"><defs><style>.cls-1{fill:#7e8b8c;}</style></defs><g><path class="cls-1" d="M36.57,26.99c-.55,0-1-.45-1-1,0-6.37-5.18-11.55-11.55-11.55-.55,0-1-.45-1-1s.45-1,1-1c7.47,0,13.54,6.08,13.54,13.55,0,.55-.45,1-1,1Z"/><path class="cls-1" d="M42.8,26.99c-.55,0-1-.45-1-1,0-9.8-7.97-17.77-17.77-17.77-.55,0-1-.45-1-1s.45-1,1-1c10.9,0,19.77,8.87,19.77,19.77,0,.55-.45,1-1,1Z"/><path class="cls-1" d="M49.03,26.99c-.55,0-1-.45-1-1C48.03,12.76,37.26,1.99,24.03,1.99c-.55,0-1-.45-1-1s.45-1,1-1c14.33,0,26,11.66,26,25.99,0,.55-.45,1-1,1Z"/></g><path class="cls-1" d="M34.18,49.97c-6.91,0-15.58-4.04-22.83-11.29C6.12,33.46,2.37,27.35,.8,21.5-.83,15.45,.04,10.35,3.25,7.15h0c2.04-2.04,6.36-2.92,6.54-2.96,1.15-.23,2.4,.43,2.83,1.5l4.42,11.04c.4,1.01,.1,2.36-.69,3.15l-3.2,3.2c-.3,.3-.4,.73-.24,1.07,1.42,2.6,3.32,5.09,5.6,7.36,2.28,2.28,4.77,4.18,7.2,5.5,.51,.25,.94,.15,1.24-.15l3.2-3.2c.79-.79,2.13-1.09,3.14-.69l11.05,4.41c1.07,.43,1.73,1.68,1.5,2.83-.04,.18-.92,4.51-2.95,6.54-2.17,2.17-5.21,3.2-8.7,3.2ZM4.66,8.56h0c-2.68,2.68-3.37,7.09-1.94,12.42,1.48,5.52,5.04,11.31,10.03,16.29,10.15,10.15,23.02,13.77,28.71,8.09,1.33-1.33,2.19-4.44,2.41-5.52,.05-.24-.12-.52-.29-.59l-11.05-4.41c-.24-.1-.75,0-.99,.25l-3.2,3.2c-.88,.88-2.21,1.15-3.3,.65-.02,0-.2-.1-.21-.11-2.68-1.46-5.33-3.48-7.74-5.9-2.41-2.41-4.43-5.05-5.84-7.65,0,0-.11-.21-.12-.22-.53-1.18-.27-2.51,.61-3.39l3.2-3.2c.24-.24,.34-.76,.24-1L10.77,6.44c-.06-.16-.34-.33-.59-.29-1.08,.22-4.19,1.08-5.52,2.41Z"/></svg>