<?xml version="1.0" encoding="UTF-8"?><svg id="Layer_1" xmlns="http://www.w3.org/2000/svg" viewBox="0 0 55.34 49.24"><defs><style>.cls-1{fill:#7e8b8c;}</style></defs><path class="cls-1" d="M13.97,17.96c-.26,0-.51-.1-.7-.29L3.25,7.65c-.39-.39-.39-1.02,0-1.41s1.02-.39,1.41,0l10.01,10.01c.39,.39,.39,1.02,0,1.41-.19,.19-.45,.29-.7,.29Z"/><path class="cls-1" d="M16.93,14.99c-.26,0-.51-.1-.7-.29L6.21,4.69c-.39-.39-.39-1.02,0-1.41s1.02-.39,1.41,0l10.01,10.01c.39,.39,.39,1.02,0,1.41-.19,.19-.45,.29-.7,.29Z"/><g><path class="cls-1" d="M32.84,30.57s0-.01,0-.02h-.03s.03,.02,.03,.02Z"/><path class="cls-1" d="M21.27,13.83c1.45,1.45,1.92,3.63,1.21,5.57-.13,.36-.05,.78,.23,1.05l3.27,3.27,1.41-1.41-2.84-2.84c.68-2.5-.02-5.21-1.87-7.05L10.59,.32c-.39-.39-1.02-.39-1.41,0s-.39,1.02,0,1.41l12.1,12.1Z"/><path class="cls-1" d="M37.26,32.18l-.69,.69c-.26,.26-.58,.42-.91,.53l11.04,11.04c.31,.31,.47,.71,.47,1.14s-.17,.84-.47,1.15c-.61,.61-1.67,.62-2.29,0l-13.81-13.81-1.41,1.41,13.81,13.81c.7,.7,1.63,1.06,2.56,1.06s1.85-.35,2.55-1.06c.68-.68,1.06-1.59,1.06-2.56,0-.97-.38-1.87-1.06-2.55l-10.85-10.85Z"/><path class="cls-1" d="M19.44,24.57l2.85,2.84,1.41-1.41-3.27-3.27c-.28-.27-.69-.36-1.05-.23-1.94,.72-4.12,.24-5.57-1.2L1.7,9.2c-.39-.39-1.02-.39-1.41,0s-.39,1.02,0,1.41l12.1,12.1c1.84,1.84,4.55,2.54,7.05,1.86Z"/></g><path class="cls-1" d="M11.02,49.24c-.94,0-1.87-.36-2.58-1.07-1.43-1.43-1.43-3.74,0-5.17L51.14,.29c.39-.39,1.08-.39,1.47,0,2,2,2.95,4.8,2.68,7.87-.27,3-1.68,5.92-3.97,8.22l-15.62,15.62c-.4,.41-1.07,.4-1.47,0s-.41-1.06,0-1.47l15.62-15.62c1.95-1.95,3.15-4.41,3.37-6.93,.18-2.06-.31-3.95-1.4-5.43L9.91,44.47c-.62,.62-.62,1.62,0,2.23,.62,.62,1.62,.61,2.23,0L29.79,29.05c.4-.4,1.07-.4,1.47,0s.41,1.06,0,1.47L13.61,48.17c-.71,.71-1.65,1.07-2.59,1.07Z"/></svg>