<svg width="18" height="17" viewBox="0 0 18 17" fill="none" xmlns="http://www.w3.org/2000/svg">
<path d="M3.3794 2.3379C5.62485 0.0924456 9.26286 0.0924455 11.5083 2.3379V2.34083C13.393 4.22555 13.6885 7.09348 12.4038 9.29298L16.2388 13.1289C16.8122 13.7025 16.8122 14.6299 16.2388 15.2002C15.6684 15.7739 14.7369 15.7739 14.1665 15.2002L10.3315 11.3652C8.13207 12.6468 5.26424 12.3515 3.3794 10.4668C1.13395 8.22135 1.13395 4.58335 3.3794 2.3379ZM9.9878 3.85841C8.5848 2.45213 6.30619 2.45213 4.89991 3.85841C3.49363 5.26468 3.49363 7.54002 4.89991 8.9463C6.30292 10.3524 8.58157 10.3525 9.9878 8.9463C11.394 7.54007 11.3939 5.26469 9.9878 3.85841Z" fill="#003333"/>
</svg>
