<svg width="37" height="37" viewBox="0 0 37 37" fill="none" xmlns="http://www.w3.org/2000/svg">
<g clip-path="url(#clip0_447_559)">
<g clip-path="url(#clip1_447_559)">
<g clip-path="url(#clip2_447_559)">
<mask id="path-1-inside-1_447_559" fill="#0047d4">
<path d="M36.582 18.8974C36.582 28.8373 28.5244 36.8999 18.5796 36.8999C8.63485 36.8999 0.582031 28.8373 0.582031 18.8974C0.582031 8.95755 8.63971 0.89502 18.5845 0.89502C28.5292 0.89502 36.5869 8.95269 36.5869 18.8974"/>
</mask>
<path d="M36.582 18.8974H35.582C35.582 28.2852 27.9719 35.8999 18.5796 35.8999V36.8999V37.8999C29.0768 37.8999 37.582 29.3895 37.582 18.8974H36.582ZM18.5796 36.8999V35.8999C9.18766 35.8999 1.58203 28.2856 1.58203 18.8974H0.582031H-0.417969C-0.417969 29.3891 8.08204 37.8999 18.5796 37.8999V36.8999ZM0.582031 18.8974H1.58203C1.58203 9.50965 9.19217 1.89502 18.5845 1.89502V0.89502V-0.10498C8.08725 -0.10498 -0.417969 8.40544 -0.417969 18.8974H0.582031ZM18.5845 0.89502V1.89502C27.9769 1.89502 35.5869 9.50498 35.5869 18.8974H36.5869H37.5869C37.5869 8.40041 29.0815 -0.10498 18.5845 -0.10498V0.89502Z" fill="#0047d4" mask="url(#path-1-inside-1_447_559)"/>
<path fill-rule="evenodd" clip-rule="evenodd" d="M22.1851 10.9028C22.4034 12.0477 23.0971 13.0325 24.0625 13.6485C24.7368 14.0754 25.5372 14.3277 26.3959 14.3277V14.9972V17.3354C24.7999 17.3354 23.3154 16.8357 22.1075 15.9868V22.104C22.1075 25.1602 19.5655 27.644 16.4366 27.644C15.2286 27.644 14.108 27.2704 13.1863 26.6398C11.7261 25.6356 10.7656 23.9765 10.7656 22.104C10.7656 19.0478 13.3076 16.5641 16.4366 16.5641C16.6937 16.5641 16.9508 16.5835 17.203 16.6174V17.3305V19.693C16.9605 19.6202 16.7034 19.5766 16.4366 19.5766C15.0103 19.5766 13.8461 20.7117 13.8461 22.1089C13.8461 23.0791 14.4088 23.9232 15.2335 24.3501C15.5925 24.5344 16 24.6411 16.4366 24.6411C17.8337 24.6411 18.9688 23.5545 19.0222 22.2059V10.1364H22.1075C22.1075 10.3983 22.1317 10.6506 22.1803 10.9028H22.1851Z" fill="#0047d4"/>
</g>
</g>
</g>
<defs>
<clipPath id="clip0_447_559">
<rect width="36" height="36" fill="#0047d4" transform="translate(0.582031 0.89502)"/>
</clipPath>
<clipPath id="clip1_447_559">
<rect width="36" height="36" fill="#0047d4" transform="translate(0.582031 0.89502)"/>
</clipPath>
<clipPath id="clip2_447_559">
<rect width="36" height="36" fill="#0047d4" transform="translate(0.582031 0.89502)"/>
</clipPath>
</defs>
</svg>
