<?xml version="1.0" encoding="UTF-8"?>
<svg id="Layer_1" data-name="Layer 1" xmlns="http://www.w3.org/2000/svg" viewBox="0 0 32.22 36.1">
  <defs>
    <style>
      .cls-1 {
        fill: #fff;
        fill-rule: evenodd;
        stroke-width: 0px;
      }
    </style>
  </defs>
  <path class="cls-1" d="M23.53,1.58c.45,2.36,1.88,4.39,3.87,5.66,0,0,0,0,0,0,1.39.88,3.04,1.4,4.81,1.4v1.38h0v4.82c-3.29,0-6.35-1.03-8.84-2.78v12.61c0,6.3-5.24,11.42-11.69,11.42-2.49,0-4.8-.77-6.7-2.07,0,0,0,0,0,0C1.97,31.96,0,28.54,0,24.68c0-6.3,5.24-11.42,11.69-11.42.53,0,1.06.04,1.58.11v1.47s0,3.06,0,0v4.87c-.5-.15-1.03-.24-1.58-.24-2.94,0-5.34,2.34-5.34,5.22,0,2,1.16,3.74,2.86,4.62h0c.74.38,1.58.6,2.48.6,2.88,0,5.22-2.24,5.33-5.02V0h6.36c0,.54.05,1.06.15,1.58h0Z"/>
</svg>